<svg width="22" height="22" viewBox="0 0 22 22" fill="none" xmlns="http://www.w3.org/2000/svg">
<path d="M20.1524 10.9953L21.8524 8.44533C21.9309 8.31987 21.9806 8.17856 21.9979 8.03156C22.0152 7.88457 21.9997 7.73558 21.9524 7.59533C21.9094 7.45369 21.8322 7.32484 21.7275 7.22018C21.6229 7.11552 21.494 7.03829 21.3524 6.99533L18.4024 5.79533L18.1524 2.84533C18.1479 2.70312 18.1146 2.56331 18.0544 2.43439C17.9942 2.30546 17.9085 2.1901 17.8024 2.09533C17.6809 2.00843 17.5415 1.94985 17.3944 1.9239C17.2473 1.89794 17.0963 1.90526 16.9524 1.94533L13.8024 2.59533L11.7524 0.295326C11.5488 0.105534 11.2807 0 11.0024 0C10.724 0 10.456 0.105534 10.2524 0.295326L8.20238 2.59533L5.05238 1.94533C4.90849 1.90526 4.75745 1.89794 4.61036 1.9239C4.46327 1.94985 4.32386 2.00843 4.20238 2.09533C4.09627 2.1901 4.01053 2.30546 3.95037 2.43439C3.8902 2.56331 3.85686 2.70312 3.85238 2.84533L3.60238 5.79533L0.652379 6.99533C0.510743 7.03829 0.38189 7.11552 0.277232 7.22018C0.172574 7.32484 0.0953426 7.45369 0.0523793 7.59533C0.00510706 7.73558 -0.0104435 7.88457 0.00684953 8.03156C0.0241425 8.17856 0.0738479 8.31987 0.152379 8.44533L1.85238 10.9953L0.152379 13.5453C0.0769471 13.6706 0.0299144 13.8109 0.0145963 13.9564C-0.000721673 14.1018 0.0160479 14.2488 0.063723 14.3871C0.111398 14.5254 0.188818 14.6515 0.290526 14.7566C0.392234 14.8617 0.515754 14.9432 0.652379 14.9953L3.60238 16.1953L3.85238 19.1453C3.85686 19.2875 3.8902 19.4273 3.95037 19.5563C4.01053 19.6852 4.09627 19.8005 4.20238 19.8953C4.32386 19.9822 4.46327 20.0408 4.61036 20.0668C4.75745 20.0927 4.90849 20.0854 5.05238 20.0453L8.20238 19.3953L10.2524 21.6453C10.3462 21.7517 10.4616 21.837 10.5909 21.8953C10.7203 21.9537 10.8605 21.9839 11.0024 21.9839C11.1443 21.9839 11.2845 21.9537 11.4138 21.8953C11.5431 21.837 11.6585 21.7517 11.7524 21.6453L13.8024 19.3953L16.9524 20.0453C17.0963 20.0854 17.2473 20.0927 17.3944 20.0668C17.5415 20.0408 17.6809 19.9822 17.8024 19.8953C17.9085 19.8005 17.9942 19.6852 18.0544 19.5563C18.1146 19.4273 18.1479 19.2875 18.1524 19.1453L18.4024 16.1953L21.3524 14.9953C21.489 14.9432 21.6125 14.8617 21.7142 14.7566C21.8159 14.6515 21.8934 14.5254 21.941 14.3871C21.9887 14.2488 22.0055 14.1018 21.9902 13.9564C21.9748 13.8109 21.9278 13.6706 21.8524 13.5453L20.1524 10.9953ZM8.00238 14.5453L5.90238 12.9453L5.35238 12.4953H5.30238L5.60238 13.1953L6.45238 15.1953L5.40238 15.5953L3.65238 11.2953L4.70238 10.8953L6.85238 12.4953L7.40238 12.9453C7.31563 12.7228 7.21544 12.5057 7.10238 12.2953L6.30238 10.2453L7.35238 9.79533L9.10238 14.0953L8.00238 14.5453ZM9.65238 13.8953L7.90238 9.54533L11.2024 8.24533L11.5524 9.14533L9.35238 9.99533L9.65238 10.7953L11.5524 9.99533L11.9024 10.8453L10.0024 11.5953L10.3524 12.5453L12.6024 11.6453L12.9524 12.5453L9.65238 13.8953ZM16.6024 11.0453L15.3024 9.19533L14.8524 8.44533H14.8024C14.8858 8.72445 14.9526 9.00828 15.0024 9.29533L15.4024 11.5453L14.3524 11.9953L11.4024 8.14533L12.5024 7.69533L13.6524 9.34533L14.3024 10.3453C14.2158 9.96573 14.149 9.58187 14.1024 9.19533L13.7524 7.19533L14.7524 6.79533L15.9024 8.49533L16.5024 9.44533C16.5024 9.44533 16.4024 8.74533 16.3024 8.24533L16.0024 6.29533L17.0524 5.84533L17.6524 10.6453L16.6024 11.0453Z" fill="#5A0C3D"/>
</svg>
